<mxfile host="app.diagrams.net" agent="Mozilla/5.0 (Windows NT 10.0; Win64; x64) AppleWebKit/537.36 (KHTML, like Gecko) Chrome/131.0.0.0 Safari/537.36" version="26.0.3">
  <diagram id="zsZEDWt33Hhr63EFTq3R" name="Page-1">
    <mxGraphModel dx="2048" dy="819" grid="1" gridSize="10" guides="1" tooltips="1" connect="1" arrows="1" fold="1" page="1" pageScale="1" pageWidth="850" pageHeight="1100" math="0" shadow="0">
      <root>
        <mxCell id="0" />
        <mxCell id="1" parent="0" />
        <mxCell id="logiciels" value="logiciels" style="swimlane" parent="1" vertex="1">
          <mxGeometry x="20" y="20" width="160" height="80" as="geometry" />
        </mxCell>
        <mxCell id="logiciels_attrs" value="no_logiciel (PK)&#xa;nom (NN)&#xa;description (NN)" style="text" parent="logiciels" vertex="1">
          <mxGeometry y="20" width="160" height="60" as="geometry" />
        </mxCell>
        <mxCell id="utilisateurs" value="utilisateurs" style="swimlane" parent="1" vertex="1">
          <mxGeometry x="-10" y="190" width="200" height="120" as="geometry" />
        </mxCell>
        <mxCell id="utilisateurs_attrs" value="no_utilisateur (PK)&#xa;nom_login (NN)&#xa;mot_passe (NN)&#xa;nom (NN)&#xa;prenom (NN)&#xa;role {ME, R, Co} (NN)" style="text" parent="utilisateurs" vertex="1">
          <mxGeometry y="20" width="200" height="100" as="geometry" />
        </mxCell>
        <mxCell id="bugs" value="bugs" style="swimlane" parent="1" vertex="1">
          <mxGeometry x="530" y="170" width="200" height="160" as="geometry" />
        </mxCell>
        <mxCell id="bugs_attrs" value="no_bug (PK)&#xa;rapporte_par (FK) (NN)&#xa;etat (NN) (FK)&#xa;resume (NN)&#xa;logiciel (FK) (NN)&#xa;version_bug (FK) (NN)&#xa;date_creation (NN)&#xa;doublon (FK) NULL" style="text" parent="bugs" vertex="1">
          <mxGeometry y="20" width="200" height="140" as="geometry" />
        </mxCell>
        <mxCell id="xtw7pZr0wGNULtQukEcT-10" style="edgeStyle=orthogonalEdgeStyle;rounded=0;orthogonalLoop=1;jettySize=auto;html=1;exitX=1;exitY=0.75;exitDx=0;exitDy=0;entryX=1;entryY=0.25;entryDx=0;entryDy=0;endArrow=ERzeroToMany;endFill=0;startArrow=oval;startFill=0;" edge="1" parent="bugs" source="bugs_attrs" target="bugs_attrs">
          <mxGeometry relative="1" as="geometry" />
        </mxCell>
        <mxCell id="versions" value="versions" style="swimlane" parent="1" vertex="1">
          <mxGeometry x="520" y="20" width="160" height="80" as="geometry" />
        </mxCell>
        <mxCell id="versions_attrs" value="no_version (PK)&#xa;logiciel (FK) (NN)" style="text" parent="versions" vertex="1">
          <mxGeometry y="20" width="160" height="60" as="geometry" />
        </mxCell>
        <mxCell id="changements_etat" value="changements_etat" style="swimlane" parent="1" vertex="1">
          <mxGeometry x="820" y="310" width="180" height="110" as="geometry" />
        </mxCell>
        <mxCell id="changements_etat_attrs" value="id_changEtat (PK)&#xa;bug (FK) NN&#xa;etat_ancien (FK) NULL&#xa;etat_nouveau (FK) NN" style="text" parent="changements_etat" vertex="1">
          <mxGeometry y="20" width="180" height="90" as="geometry" />
        </mxCell>
        <mxCell id="commentaires" value="commentaires" style="swimlane" parent="1" vertex="1">
          <mxGeometry x="830" y="60" width="160" height="90" as="geometry" />
        </mxCell>
        <mxCell id="commentaires_attrs" value="id_commentaire (PK) NN&#xa;bug (FK) NN&#xa;etat (FK)&#xa;commentaire" style="text" parent="commentaires" vertex="1">
          <mxGeometry y="20" width="160" height="70" as="geometry" />
        </mxCell>
        <mxCell id="relation_logiciels_versions" style="edgeStyle=elbowEdgeStyle;endArrow=ERzeroToMany;endFill=0;" parent="1" source="logiciels" target="versions" edge="1">
          <mxGeometry relative="1" as="geometry" />
        </mxCell>
        <mxCell id="relation_utilisateurs_bugs" style="edgeStyle=elbowEdgeStyle;entryX=-0.016;entryY=0.445;entryDx=0;entryDy=0;entryPerimeter=0;endArrow=ERzeroToMany;endFill=0;" parent="1" source="utilisateurs" target="bugs_attrs" edge="1">
          <mxGeometry relative="1" as="geometry" />
        </mxCell>
        <mxCell id="relation_bugs_logiciels" style="edgeStyle=elbowEdgeStyle;endArrow=none;endFill=0;startArrow=ERzeroToMany;startFill=0;exitX=-0.01;exitY=0.146;exitDx=0;exitDy=0;exitPerimeter=0;entryX=1;entryY=0.75;entryDx=0;entryDy=0;" parent="1" source="bugs_attrs" target="logiciels_attrs" edge="1">
          <mxGeometry relative="1" as="geometry" />
        </mxCell>
        <mxCell id="relation_bugs_versions" style="edgeStyle=elbowEdgeStyle;startArrow=ERzeroToMany;startFill=0;endArrow=none;endFill=0;" parent="1" source="bugs" target="versions" edge="1">
          <mxGeometry relative="1" as="geometry" />
        </mxCell>
        <mxCell id="xtw7pZr0wGNULtQukEcT-2" value="assignations" style="swimlane;fontStyle=0;childLayout=stackLayout;horizontal=1;startSize=26;fillColor=none;horizontalStack=0;resizeParent=1;resizeParentMax=0;resizeLast=0;collapsible=1;marginBottom=0;whiteSpace=wrap;html=1;" vertex="1" parent="1">
          <mxGeometry x="600" y="410" width="140" height="104" as="geometry" />
        </mxCell>
        <mxCell id="xtw7pZr0wGNULtQukEcT-4" value="id_assignation (PK) NN" style="text;strokeColor=none;fillColor=none;align=left;verticalAlign=top;spacingLeft=4;spacingRight=4;overflow=hidden;rotatable=0;points=[[0,0.5],[1,0.5]];portConstraint=eastwest;whiteSpace=wrap;html=1;" vertex="1" parent="xtw7pZr0wGNULtQukEcT-2">
          <mxGeometry y="26" width="140" height="26" as="geometry" />
        </mxCell>
        <mxCell id="xtw7pZr0wGNULtQukEcT-6" value="utilisateur (FK) NN" style="text;strokeColor=none;fillColor=none;align=left;verticalAlign=top;spacingLeft=4;spacingRight=4;overflow=hidden;rotatable=0;points=[[0,0.5],[1,0.5]];portConstraint=eastwest;whiteSpace=wrap;html=1;" vertex="1" parent="xtw7pZr0wGNULtQukEcT-2">
          <mxGeometry y="52" width="140" height="26" as="geometry" />
        </mxCell>
        <mxCell id="xtw7pZr0wGNULtQukEcT-7" value="bug (FK) NN" style="text;strokeColor=none;fillColor=none;align=left;verticalAlign=top;spacingLeft=4;spacingRight=4;overflow=hidden;rotatable=0;points=[[0,0.5],[1,0.5]];portConstraint=eastwest;whiteSpace=wrap;html=1;" vertex="1" parent="xtw7pZr0wGNULtQukEcT-2">
          <mxGeometry y="78" width="140" height="26" as="geometry" />
        </mxCell>
        <mxCell id="xtw7pZr0wGNULtQukEcT-8" style="edgeStyle=orthogonalEdgeStyle;rounded=0;orthogonalLoop=1;jettySize=auto;html=1;entryX=0.211;entryY=-0.005;entryDx=0;entryDy=0;entryPerimeter=0;endArrow=ERzeroToMany;endFill=0;" edge="1" parent="1" source="bugs_attrs" target="xtw7pZr0wGNULtQukEcT-2">
          <mxGeometry relative="1" as="geometry" />
        </mxCell>
        <mxCell id="xtw7pZr0wGNULtQukEcT-9" style="edgeStyle=orthogonalEdgeStyle;rounded=0;orthogonalLoop=1;jettySize=auto;html=1;entryX=-0.004;entryY=0.067;entryDx=0;entryDy=0;entryPerimeter=0;endArrow=ERzeroToMany;endFill=0;" edge="1" parent="1" source="utilisateurs_attrs" target="xtw7pZr0wGNULtQukEcT-2">
          <mxGeometry relative="1" as="geometry" />
        </mxCell>
        <mxCell id="xtw7pZr0wGNULtQukEcT-13" style="edgeStyle=orthogonalEdgeStyle;rounded=0;orthogonalLoop=1;jettySize=auto;html=1;entryX=0.814;entryY=0.002;entryDx=0;entryDy=0;entryPerimeter=0;endArrow=none;endFill=0;startArrow=ERzeroToMany;startFill=0;" edge="1" parent="1" source="commentaires" target="bugs">
          <mxGeometry relative="1" as="geometry" />
        </mxCell>
        <mxCell id="xtw7pZr0wGNULtQukEcT-17" style="edgeStyle=orthogonalEdgeStyle;rounded=0;orthogonalLoop=1;jettySize=auto;html=1;exitX=0.25;exitY=0;exitDx=0;exitDy=0;entryX=1;entryY=0.25;entryDx=0;entryDy=0;endArrow=ERzeroToMany;endFill=0;" edge="1" parent="1" source="xtw7pZr0wGNULtQukEcT-15" target="commentaires_attrs">
          <mxGeometry relative="1" as="geometry" />
        </mxCell>
        <mxCell id="xtw7pZr0wGNULtQukEcT-18" style="edgeStyle=orthogonalEdgeStyle;rounded=0;orthogonalLoop=1;jettySize=auto;html=1;exitX=0.25;exitY=1;exitDx=0;exitDy=0;entryX=1;entryY=0.25;entryDx=0;entryDy=0;endArrow=ERzeroToMany;endFill=0;startArrow=oval;startFill=0;" edge="1" parent="1" source="xtw7pZr0wGNULtQukEcT-15" target="changements_etat_attrs">
          <mxGeometry relative="1" as="geometry" />
        </mxCell>
        <mxCell id="xtw7pZr0wGNULtQukEcT-19" style="edgeStyle=orthogonalEdgeStyle;rounded=0;orthogonalLoop=1;jettySize=auto;html=1;exitX=0.5;exitY=1;exitDx=0;exitDy=0;entryX=1;entryY=0.75;entryDx=0;entryDy=0;endArrow=ERzeroToMany;endFill=0;" edge="1" parent="1" source="xtw7pZr0wGNULtQukEcT-15" target="changements_etat_attrs">
          <mxGeometry relative="1" as="geometry" />
        </mxCell>
        <mxCell id="xtw7pZr0wGNULtQukEcT-15" value="etats" style="swimlane" vertex="1" parent="1">
          <mxGeometry x="1040" y="240" width="180" height="50" as="geometry" />
        </mxCell>
        <mxCell id="xtw7pZr0wGNULtQukEcT-16" value="libelle (PK) UNIQUE" style="text" vertex="1" parent="xtw7pZr0wGNULtQukEcT-15">
          <mxGeometry y="20" width="180" height="20" as="geometry" />
        </mxCell>
        <mxCell id="xtw7pZr0wGNULtQukEcT-21" style="edgeStyle=orthogonalEdgeStyle;rounded=0;orthogonalLoop=1;jettySize=auto;html=1;exitX=0;exitY=0.25;exitDx=0;exitDy=0;entryX=0.9;entryY=1;entryDx=0;entryDy=0;entryPerimeter=0;startArrow=ERmany;startFill=0;endArrow=none;endFill=0;" edge="1" parent="1" source="changements_etat_attrs" target="bugs_attrs">
          <mxGeometry relative="1" as="geometry" />
        </mxCell>
        <mxCell id="xtw7pZr0wGNULtQukEcT-23" style="edgeStyle=orthogonalEdgeStyle;rounded=0;orthogonalLoop=1;jettySize=auto;html=1;exitX=0.111;exitY=0;exitDx=0;exitDy=0;entryX=1.011;entryY=0.06;entryDx=0;entryDy=0;entryPerimeter=0;endArrow=ERzeroToMany;endFill=0;exitPerimeter=0;" edge="1" parent="1" source="xtw7pZr0wGNULtQukEcT-15" target="bugs_attrs">
          <mxGeometry relative="1" as="geometry" />
        </mxCell>
      </root>
    </mxGraphModel>
  </diagram>
</mxfile>
